# xmcd CD database file
#
# Track frame offsets:
#	150
#	16567
#	34450
#	53965
#	70625
#	89112
#	106757
#	120247
#	137145
#	153607
#
# Disc length: 2318 seconds
#
# Revision: 2
# Processed by: cddbd v1.5.2PL0 Copyright (c) Steve Scherf et al.
# Submitted via: CDex 1.51
#
DISCID=7e090c0a
DTITLE=Gary Morris - Stones
DYEAR=1989
DGENRE=Country
TTITLE0=Chrome Plated Heart
TTITLE1=Shelter
TTITLE2=Never Had A Love Song
TTITLE3=Bread And Water
TTITLE4=Stones (Dig A Little Deeper)
TTITLE5=Sooner Or Later
TTITLE6=The Jaws Of Modern Romance
TTITLE7=So Little Love In The World
TTITLE8=Stand My Ground
TTITLE9=Love Will Provide
EXTD=YEAR: 1989
EXTT0=
EXTT1=
EXTT2=
EXTT3=
EXTT4=
EXTT5=
EXTT6=
EXTT7=
EXTT8=
EXTT9=
PLAYORDER=
